<svg version="1" xmlns="http://www.w3.org/2000/svg" width="682.667" height="682.667" viewBox="0 0 512.000000 512.000000"><path d="M273.9.4c-.2.2-4 .6-8.4 1C233.2 4.1 194 18 165 37c-23.4 15.4-32.5 25.5-36.3 40.1-1.4 5.3-1.5 15.1-.3 20.9.3 1.4 1.1 5 1.7 8 4.3 21.5 9.6 34 18.4 43.4l2.7 3-8.3 2.2c-24.6 6.6-35.8 14.5-45.2 31.5-2.9 5.4-8 20.7-9.7 29.4-3.1 16.2-9 28.9-15.5 34-6.1 4.6-18 9-29.8 11.1-5.3.9-18.8 4.4-20.5 5.4-.9.5-4.4 2.1-7.6 3.6-6.8 3.2-9.6 5.6-12 10.1-1.9 3.8-2 6.8-.4 11.4 1.4 4 2.3 5 6.9 7.8 4.9 3 8.4 2.6 17.4-1.8 5.1-2.4 13.1-5 22-7.1 31.5-7.4 44.2-14.5 55.2-30.9 5.1-7.6 8.5-16.9 13.3-36.1 4.5-18.3 5.8-21.7 10.5-27.5 5.8-7.1 10.4-9 39.9-16.1 6-1.4 14.1-4 18-5.8l7.1-3.3 9.1 2.3c20.7 5 27.5 11.3 32.2 29.7 2.3 8.8 2.5 8.4-5.8 10.8-5 1.4-5.3 1.4-9.5 2.2-37.1 7-53.9 20-62.8 48.7-1.5 4.7-2.9 9.6-3.1 11-1.9 11-7.1 26.4-10.6 31.6-3 4.2-7.4 8-12.6 10.7-3 1.5-18.5 6.2-23.4 7.1-11.3 1.9-27.7 8-35 13-14.6 9.9-21.2 22.5-29 55.7-4.9 21.1-10 27.8-24.9 32.9-9.7 3.3-12.7 5.4-14.7 10.5-2.9 7.7-.3 15 6.7 18.6 4.8 2.4 8.1 2.4 15.9-.1 19.7-6.3 32.3-17.4 40.4-35.8 2.6-5.9 7-21.7 8.2-29.2.9-5.4 4.3-15 7-19.7 2.6-4.5 7.8-8.9 13.5-11.5 3-1.3 23.3-6.8 31.4-8.4 1.1-.2 5.5-1.7 9.8-3.3 16.9-6.4 27.7-15.5 35-29.6 4.3-8.3 6.3-14.2 10.6-31.5 4.3-17.5 5.7-21.3 10.2-27.1 4.8-6.2 17.7-11.5 34.9-14.5 1.4-.3 5.7-1.4 9.6-2.4 3.8-1.1 7.3-2 7.7-2 .4 0 2.5 2.9 4.7 6.4 8.4 13.3 22.3 23.1 39 27.4l7.5 2-4 1c-2.2.6-8.3 2.1-13.5 3.2-26.8 6.1-42 15.3-50.2 30.3-3.9 7.1-8.2 18.1-9.7 24.7-5.4 24.1-8.3 31.9-14.6 38.9-5.3 5.8-13.4 9.3-33 14-40.9 10-53 22.3-62.4 63.7-4.5 19.6-6.2 23.5-14.2 31.7-7.3 7.5-8.7 10.7-7.5 17.1.7 3.8 6.7 10.5 9.6 10.8 9.5.8 12.8-.4 20-7.4 11.8-11.3 15.1-19 22.9-52.3 3.8-16.2 9.1-24.2 19.1-28.7 3.8-1.8 13.3-4.6 17.7-5.4 1.5-.3 3.6-.7 4.5-1 1.6-.5 3.2-.8 8.1-1.9 6.2-1.3 20.6-7.3 26-10.8 13.5-8.7 23.6-23.8 28.3-42.2.4-1.7.8-3.5 1-4 .8-3.3 2.6-11.3 3-13.1 1.2-6.2 4.7-15.5 7.3-19.5 5.5-8.2 11.9-11.3 33.8-16.3 19-4.4 29.1-8.3 37.3-14.5l6.5-5 1.8 2.2c3.4 4.1 6.4 12.2 9.6 25.7 1.8 7.4 4.1 15.9 5.2 18.9 1.1 2.9 1.8 5.5 1.7 5.6-.2.1-5.1 1.4-10.9 2.8-37.2 9.2-48.7 21.1-58.5 60.4-6.5 26.1-10.8 33.6-22.7 39.6-4.6 2.4-19.5 6.7-28.2 8.2-7.2 1.3-21.9 6.9-27.7 10.7-10.7 6.8-15.9 12.7-21.9 24.8-3.5 7.1-3.6 10.9-.7 16.2 2.9 5.1 7.9 7.8 14 7.4 6-.3 9.8-3.2 13.2-10 6.5-12.7 11.9-15.8 39.6-22.2 26-6.1 41.5-15.6 50.7-31.2 4.5-7.6 8.3-18.2 11.9-33.2 4.5-19 7.3-25.7 13.3-31.3 5.5-5.1 11-7.2 32.4-12.2l14.2-3.3 3.3 2.4c5.1 3.9 15.1 8.2 22.7 9.7 10 2 24.7 2.1 34.1.2 8.2-1.7 23.3-8.3 29.4-12.9 24.7-18.6 45.9-61.3 53.4-107.6 1.2-7.4 1.5-15.8 1.2-38.5-.2-16.1-.8-30.8-1.4-33-.6-2.2-1.4-5.6-1.7-7.5-1.6-9.5-7.7-29.7-12.2-40.5-6.2-15-17.4-35.5-24.5-45-19-25.2-39-44.3-61.3-58.6-11-7.1-13.4-8.4-24.4-13.9-22.2-11-46.8-18.2-73.6-21.6-5.4-.6-38-1.5-38.6-1z"/></svg>